<svg xmlns="http://www.w3.org/2000/svg" viewBox="0 0 32 32" width="32" height="32">
  <defs>
    <linearGradient id="appleGradient" x1="0%" y1="0%" x2="100%" y2="100%">
      <stop offset="0%" style="stop-color:#007AFF;stop-opacity:1" />
      <stop offset="100%" style="stop-color:#5856D6;stop-opacity:1" />
    </linearGradient>
  </defs>
  
  <!-- Apple logo shape -->
  <path d="M23.8 12.6c-.1-2.8 2.3-4.2 2.4-4.3-1.3-1.9-3.3-2.1-4-2.1-1.7-.2-3.3 1-4.2 1-.9 0-2.3-1-3.8-.9-1.9 0-3.7 1.1-4.7 2.8-2 3.5-.5 8.7 1.4 11.5 1 1.4 2.1 2.9 3.6 2.8 1.5-.1 2.1-.9 3.9-.9 1.8 0 2.3.9 3.9.9 1.6-.1 2.5-1.3 3.4-2.7 1.1-1.6 1.5-3.2 1.5-3.3-.1 0-2.8-1.1-2.9-4.2z" fill="url(#appleGradient)"/>
  <path d="M20.1 4.4c.8-1 1.4-2.4 1.2-3.8-1.2 0-2.6.8-3.5 1.8-.7.9-1.4 2.3-1.2 3.6 1.3.1 2.7-.7 3.5-1.6z" fill="url(#appleGradient)"/>
</svg>